<svg width="183" height="56" viewBox="0 0 183 56" fill="none" xmlns="http://www.w3.org/2000/svg">
<path d="M40.8801 56L27.84 37.68L15.2801 56H4.88758e-05L19.36 27.68L0.400049 -3.8147e-06H16.72L28.3201 17.36L40.64 -3.8147e-06H55.8401L36.4001 27.28L56.6401 56H40.8801ZM63.3825 56V-3.8147e-06H90.8226C95.0359 -3.8147e-06 98.6359 0.799997 101.623 2.4C104.609 4 106.876 6.26666 108.423 9.2C110.023 12.08 110.823 15.52 110.823 19.52C110.823 23.5733 109.969 27.0933 108.263 30.08C106.609 33.0667 104.263 35.36 101.223 36.96C98.2359 38.56 94.7159 39.36 90.6626 39.36H77.4625V56H63.3825ZM77.4625 27.36H87.6225C90.4492 27.36 92.6092 26.7733 94.1025 25.6C95.5959 24.3733 96.3426 22.3467 96.3426 19.52C96.3426 16.6933 95.5959 14.72 94.1025 13.6C92.6092 12.4267 90.4492 11.84 87.6225 11.84H77.4625V27.36ZM119.164 56V-3.8147e-06H132.684L150.444 27.92H150.604L168.684 -3.8147e-06H182.044V56H168.204V23.44L155.404 42.8H145.564L133.004 23.44V56H119.164Z" fill="black"/>
</svg>
